<svg width="32" height="32" viewBox="0 0 32 32" fill="none" xmlns="http://www.w3.org/2000/svg">
  <rect width="32" height="32" rx="6" fill="#0066CC"/>
  <path d="M8 24V8h6c1.5 0 2.7.5 3.6 1.4s1.4 2.1 1.4 3.6c0 .8-.2 1.5-.5 2.1s-.8 1.1-1.4 1.5c.7.3 1.3.8 1.7 1.5s.6 1.5.6 2.4c0 1.6-.5 2.8-1.4 3.7S15.6 24 14 24H8zm3-9h2.5c.6 0 1.1-.2 1.5-.6s.6-.9.6-1.5-.2-1.1-.6-1.5-.9-.6-1.5-.6H11v4.2zm0 6.2h3c.7 0 1.2-.2 1.6-.6s.6-.9.6-1.6-.2-1.2-.6-1.6-.9-.6-1.6-.6H11v4.4z" fill="white"/>
  <circle cx="24" cy="12" r="2" fill="#FFD700"/>
  <circle cx="26" cy="20" r="1.5" fill="#FFD700"/>
  <circle cx="22" cy="24" r="1" fill="#FFD700"/>
</svg>